<?xml version="1.0" encoding="UTF-8"?>
<svg id="uuid-b119fe1e-93f3-46db-a73f-0d19bd76adee" data-name="Ebene 2" xmlns="http://www.w3.org/2000/svg" viewBox="0 0 401.18 274.97">
  <defs>
    <style>
      .uuid-86678bad-c4ac-4ca4-adbe-48a5c382d905 {
        fill: #fff;
      }

      .uuid-b94033af-383d-48c4-87cf-6ad5c68c2f63 {
        fill: #83cee6;
      }

      .uuid-517bfa53-dc84-48e4-b360-cf9b4240e05a {
        fill: #404040;
      }
    </style>
  </defs>
  <g id="uuid-95543d21-98dd-4439-9f84-877cd0cde18c" data-name="Ebene 1">
    <g>
      <polygon class="uuid-b94033af-383d-48c4-87cf-6ad5c68c2f63" points="401.18 274.97 401.18 0 211.52 0 211.52 274.97 401.18 274.97 401.18 274.97"/>
      <path class="uuid-86678bad-c4ac-4ca4-adbe-48a5c382d905" d="M369.15,215.34c-17.88,11.59-38.16,17.41-59.76,17.43-21.4,0-44.12-5.78-66.67-17.73-4.74-2.51-10.63-.71-13.14,4.02-2.52,4.73-.71,10.61,4.03,13.12,25.02,13.26,50.86,19.99,75.79,19.99,.03,0,.06,0,.09,0,25.09,0,49.25-6.91,70.27-20.56,4.5-2.92,5.78-8.93,2.85-13.42-2.93-4.49-8.95-5.77-13.45-2.84h0Zm-62.84-79.49c9.19,0,16.63-7.43,16.63-16.6s-7.44-16.6-16.63-16.6-16.63,7.43-16.63,16.6,7.45,16.6,16.63,16.6h0Zm34.88-3.59c-10.2,8.4-21.22,12.35-33.04,12.39-11.71,0-24.43-4.02-37.45-12.82-4.24-2.87-10.02-1.76-12.9,2.47-2.88,4.24-1.77,10,2.48,12.87h0c11.74,7.94,23.99,13.03,36.23,15.03v60.84h19.58v-60.38c13.3-1.56,25.99-7.04,36.96-16.15,3.95-3.27,4.49-9.11,1.21-13.05-3.27-3.94-9.12-4.48-13.07-1.21h0Z"/>
      <g>
        <path class="uuid-517bfa53-dc84-48e4-b360-cf9b4240e05a" d="M23.76,63.56l-3.34-11.78H8.27l-3.34,11.78H0L11.93,22.55h4.93l11.88,41.01h-4.97Zm-7.83-28.66c-.09-.42-.24-1.05-.46-1.89-.22-.84-.43-1.72-.64-2.63-.21-.92-.37-1.66-.48-2.23-.24,1.18-.5,2.44-.79,3.77-.29,1.34-.53,2.33-.7,2.97l-3.17,11.5h9.42l-3.17-11.5Z"/>
        <path class="uuid-517bfa53-dc84-48e4-b360-cf9b4240e05a" d="M73.26,63.56h-5.76l-15.88-25.39h-.18c.06,1.17,.13,2.52,.22,4.03s.13,3.06,.13,4.64v16.72h-4.31v-31.42h5.72l15.84,25.26h.13c-.03-.62-.07-1.39-.11-2.33-.04-.94-.08-1.94-.11-3.01-.03-1.07-.06-2.08-.09-3.01v-16.9h4.4v31.42Z"/>
        <path class="uuid-517bfa53-dc84-48e4-b360-cf9b4240e05a" d="M119.77,63.56h-5.5l-10.3-14.48-3.08,2.55v11.92h-4.75v-31.42h4.75v15.18c.76-.88,1.53-1.77,2.29-2.66,.76-.89,1.53-1.78,2.29-2.66l8.49-9.86h5.46l-12.01,13.73,12.36,17.69Z"/>
        <path class="uuid-517bfa53-dc84-48e4-b360-cf9b4240e05a" d="M156.16,63.56h-17.69v-31.42h17.69v4.05h-12.94v8.98h12.14v4h-12.14v10.3h12.94v4.09Z"/>
        <path class="uuid-517bfa53-dc84-48e4-b360-cf9b4240e05a" d="M186.3,32.15c4.02,0,6.99,.75,8.91,2.24s2.88,3.77,2.88,6.82c0,1.61-.3,2.97-.9,4.07-.6,1.1-1.37,2-2.31,2.68-.94,.69-1.92,1.24-2.95,1.65l8.8,13.95h-5.46l-7.57-12.72h-5.46v12.72h-4.75v-31.42h8.8Zm-.31,4.05h-3.74v10.69h3.96c2.43,0,4.21-.46,5.32-1.39,1.11-.92,1.67-2.29,1.67-4.11s-.59-3.21-1.76-4c-1.17-.79-2.99-1.19-5.46-1.19Z"/>
        <path class="uuid-517bfa53-dc84-48e4-b360-cf9b4240e05a" d="M228.67,63.56V22.72h4.75V58.24h13.42v5.32h-18.17Z"/>
        <path class="uuid-517bfa53-dc84-48e4-b360-cf9b4240e05a" d="M288.99,63.56l-3.34-9.06h-12.14l-3.34,9.06h-4.93l11.92-31.55h4.93l11.88,31.55h-4.97Zm-7.83-22.04c-.09-.32-.24-.81-.46-1.45-.22-.65-.43-1.32-.64-2.02-.21-.7-.37-1.28-.48-1.72-.24,.91-.5,1.88-.79,2.9-.29,1.03-.53,1.79-.7,2.29l-3.17,8.84h9.42l-3.17-8.84Z"/>
        <path class="uuid-517bfa53-dc84-48e4-b360-cf9b4240e05a" d="M338.49,63.56h-5.76l-15.88-25.39h-.18c.06,1.17,.13,2.52,.22,4.03s.13,3.06,.13,4.64v16.72h-4.31v-31.42h5.72l15.84,25.26h.13c-.03-.62-.07-1.39-.11-2.33-.04-.94-.08-1.94-.11-3.01-.03-1.07-.06-2.08-.09-3.01v-16.9h4.4v31.42Z"/>
        <path class="uuid-517bfa53-dc84-48e4-b360-cf9b4240e05a" d="M386.8,47.55c0,5.31-1.46,9.31-4.38,11.99-2.92,2.68-7,4.03-12.25,4.03h-8.8v-31.42h9.72c3.2,0,5.97,.59,8.32,1.76s4.17,2.9,5.46,5.17c1.29,2.27,1.94,5.1,1.94,8.47Zm-4.97,.13c0-3.96-.96-6.87-2.88-8.73-1.92-1.86-4.64-2.79-8.16-2.79h-4.66v23.41h3.83c7.92,0,11.88-3.96,11.88-11.88Z"/>
      </g>
    </g>
  </g>
</svg>