<?xml version="1.0" encoding="iso-8859-1"?>
<!-- Generator: Adobe Illustrator 22.1.0, SVG Export Plug-In . SVG Version: 6.00 Build 0)  -->
<svg version="1.2" baseProfile="tiny" xmlns="http://www.w3.org/2000/svg" xmlns:xlink="http://www.w3.org/1999/xlink" x="0px"
	 y="0px" viewBox="0 0 2628 696" xml:space="preserve">
<g id="Bildmarke">
	<path fill="#9ECB09" d="M311,427.1c9.7-10.4,20.7-22.3,35.5-38.4c50.5-54.6,59.8-111.8,43.1-159c-15.8-44.5-75.1-93.3-141.7-93.3
		c-68.4,0.5-128.2,46.6-143.4,93.4c-10.2,31.5-20,89.9,45.4,159.9l97.8,105.5l21-22.6c0,0-68.8-74.5-93.8-101.5
		c-20.2-24.9-55.2-69.3-40.7-127.7c5.5-22.3,45.3-76.4,113.8-76.2c68.4,0.2,105.7,56.7,111.9,73.4c14.3,38.7,6.3,82.1-38.6,130.2
		c-16,17.1-7.6,8.3-23.9,25.7c0,0-66.2-71.8-83.2-90.4c-12.6-13.8-14.6-36-0.8-49.6c13.6-13.3,34.6-17.3,51.5-1.1l19.9,21.7
		c10.3,10.7,14.6,10.6,24.1,0.8c7.4-7.6,24.5-26.5,28.9-31.4c-7.6-7.4-13.7-13.4-21.9-21.6c-4.9,5.2-16,17.3-18.7,20.1
		c-10.7-11.5-24.2-30.5-56.5-30.8c-19.6,0-37,8.3-49,20.2c-16.4,18-19.3,33.3-19.6,41.7c-0.6,17.4,1.3,31.7,22.9,55.3
		c35.3,38.2,78.5,84.7,89,95.9C294.4,438.3,300.8,438.1,311,427.1z"/>
</g>
<g id="Wortmarke">
	<g>
		<path d="M2182,409.8c0,10.7-8.6,19.6-19.6,19.6c-10.7,0-19.3-8.9-19.3-19.6c0-10.5,8.6-19.3,19.3-19.3
			C2173.4,390.5,2182,399.4,2182,409.8z"/>
		<path d="M2312,371.4c0,34.5-19.5,57.7-52.2,57.7c-32.5,0-52.2-21.6-52.2-57.7c0-34.7,19.5-57.7,52.4-57.7
			C2292.4,313.7,2312,335.2,2312,371.4z M2238,371.4c0,25.1,7.4,36,21.8,36c14.4,0,21.8-11.1,21.8-36c0-25.1-7.4-36-21.6-36
			C2245.4,335.4,2238,346.5,2238,371.4z"/>
		<path d="M2394.7,315.4l-4.9,28.2c-3.3-0.8-6-1.4-9.7-1.4c-13.4,0-19.5,9.9-23.4,27.3V429h-29.2V316.9h25.3l2.7,21.2
			c5.1-15.2,15.6-24.3,28.4-24.3C2387.7,313.8,2391,314.4,2394.7,315.4z"/>
		<path d="M2503.7,322.9c-8,3.1-18.3,4.1-31.4,4.1c13.4,6,20.1,14.2,20.1,28c0,21.2-17.1,36.6-44.8,36.6c-4.7,0-8.8-0.4-12.7-1.4
			c-2.5,1.6-4.1,4.3-4.1,7.2c0,3.7,1.8,7.2,12.5,7.2h16.6c24.7,0,40.5,13.2,40.5,31.2c0,22-19.1,35.4-55.5,35.4
			c-39.9,0-50.8-13-50.8-34.7h26.1c0,10.3,4.5,14.8,25.3,14.8c20.1,0,25.5-5.5,25.5-13.4c0-7.4-5.6-11.9-17.1-11.9h-16
			c-22.8,0-32.3-9.9-32.3-21.4c0-7.8,4.9-15.4,12.7-20.3c-13.6-7.4-19.3-17.1-19.3-31c0-24,19.1-39.5,46.4-39.5
			c25.1,0.6,37.8-5.8,51-13.2L2503.7,322.9z M2428.3,352.7c0,12.5,7,19.9,18.1,19.9c11.7,0,17.9-7,17.9-20.3c0-13-6-19.1-18.1-19.1
			C2435.1,333.2,2428.3,340.8,2428.3,352.7z"/>
	</g>
	<path d="M1595.4,167l-50.1,16.1v131.1h-14.4c-4.7-45.1-27.6-81.7-79.7-81.7c-29.5,0-48.5,13.1-59.7,31.7h-0.7v-27.2l-75.4,0
		c-29.9,0-37.7,25.8-40,43.7h-0.7v-43.7h-44.4v128.6c-29.9,18.9-58.9,32.3-87.7,32.4c-31,0.1-52.6-21.3-54.9-52.2h120.9
		c0-67.2-23-112.2-79.4-112.4c-59.7-0.2-89.2,45.9-89.2,101.5c0,19.6,3.6,36.6,10.4,50.8c-8.9,4.9-19.4,9.2-29.8,9.2
		c-19-0.1-23.5-15.3-23.5-31.7v-89.6h31.9l22-36.6h-53.8v-69l-50,16.1v52.9l-52.8,0v-69l-50,16.1l-0.1,53.3h-19.8v35.9h19.9v89.2
		c-31.1,20.2-61.4,34.6-91.3,34.7c-31,0.1-52.6-20.4-54.9-51.4h120.3c0-67.2-22.4-113-78.9-113.2c-52.5-0.2-81.6,35.4-87.9,81.7
		h-12.7c-4.7-45.1-27.6-81.7-79.7-81.7c-26.1,0-43.7,10.8-57.5,29.1h-0.7v-94.5l-50,15.7v246.4h48.5v-23.5h0.7
		c14.6,20.5,37.7,28,59,28c51.9,0,74.8-42.8,79.6-87.7h12.4c6.3,52.4,42,87.7,99.4,87.7c25.4,0,55.6-9.4,99.4-32.1
		c8.9,20.1,27.6,32,55,32c14.8,0,23.5-2.7,33.3-7.3l-13.1-34.7c-2.6,1.7-5.6,2.9-9.5,3.1c-19,0.9-21.5-15.2-21.5-31.6v-89.6l52.8,0
		v97.8c0,38.1,21.6,62.3,60.8,62.3c29.3,0,39.5-7.1,63.8-20.6c16.9,13.9,40.1,21.4,68.7,21.4c23.6,0,51.2-8,90-27.3v22h50v-70.5
		c0-27.6,0-78.4,40.7-78.4c8.7,0,17.4,1.4,22,3.9V495h50v-87.9h0.7c17.5,21.3,35.1,26.5,56.4,26.5c55,0,77.7-40.7,81.2-87.9h14v24.7
		c0,38.1,21.6,62.3,60.8,62.3c23.9,0,33.5-4.7,41.4-8.3c11.1,6,24.3,9.2,37.6,9.2c22.8,0,47.8-11.9,59.3-33.2h0.7
		c0.4,6,0.4,18.7,2.2,28.7h44c-1.1-14.9-1.9-28.4-2.2-42.9c-0.3-10.8-0.6-27.6-0.7-40.8h12c6.3,48.5,37.6,88.1,93.6,88.2
		c20.7,0,50.1-9.7,74.1-27.2c17.2,18.2,42.9,28,75.7,28c26.9,0,51.1-9.7,68-21.5v-40.5c-22.6,19.1-39.1,25.4-65.7,25.4
		c-31,0-52.6-21.3-54.9-52.2h120.9c0-67.2-23-112.2-79.4-112.4c-59.7-0.2-89.2,45.9-89.2,101.5c0,15.4,2.2,29.3,6.5,41.4
		c-12.2,9.7-25.2,17.7-46.7,18.6c-35.1,1.5-51.9-27.2-51.9-62.7c0-36.2,19.8-60.7,50.8-60.8c13.9,0,17.6,1.9,27.6,7.5l15.1-31.2
		c-19.3-9.6-32.7-15.1-52.9-15.1c-52.1,0-83.8,37-91.3,82.1h-12.6c-0.8-54.7-25.1-82.1-82.7-82.1c-21.3,0-47.4,5.6-66.8,14.6
		l1.5,42.9c16.8-12.7,38.1-20.9,59.3-20.9c29.5,0,43.2,14.4,43.2,45.4h-27.6c-20.9,0-45.4-2.1-64.4,7.2c-19,9.3-32.8,26.1-32.8,54.9
		c0,8.6,1.8,16.3,5.1,23c-1.4,0.4-2.8,0.6-4.2,0.6c-19,0-23.5-21.6-23.5-38L1595.4,167z M739.8,269c26.3,0,36.9,20.9,38.3,45.2H698
		C700.1,288.4,713.4,269,739.8,269z M545.3,394.8c-33.2,0-44-35.1-44-62.3c0-26.9,12.7-61.2,44.8-61.2c32.5,0,41.4,35.5,41.4,61.2
		C587.5,359,578.1,394.8,545.3,394.8z M1129.5,269.9c26.3,0,36.9,20.1,38.3,44.3h-80.1C1089.8,288.4,1103.1,269.9,1129.5,269.9z
		 M1437.4,394.8c-33.2,0-44-35.1-44-62.3c0-26.9,12.7-61.2,44.8-61.2c32.5,0,41.4,35.5,41.4,61.2
		C1479.6,359,1470.3,394.8,1437.4,394.8z M1732.6,379.9c-7.8,10.5-19.8,17.2-35.1,17.2c-17.9,0-31.7-7.1-31.7-23.5
		c0-28.1,32.6-28,55-28h21.6C1741.7,361.3,1738.5,371.9,1732.6,379.9z M2033.2,269.9c26.3,0,36.8,20.1,38.2,44.3h-80.1
		C1993.5,288.4,2006.9,269.9,2033.2,269.9z"/>
	<g>
	</g>
	<g>
	</g>
	<g>
	</g>
	<g>
	</g>
	<g>
	</g>
	<g>
	</g>
</g>
</svg>
